<svg height="60pt" viewBox="0 -24 480 479" width="60pt" xmlns="http://www.w3.org/2000/svg"><path fill="#96191d" d="m472 40.417969c-4.417969 0-8 3.582031-8 8v312h-160c-14.582031.011719-27.3125 9.878906-30.960938 24h-66.078124c-3.648438-14.121094-16.378907-23.988281-30.960938-24h-16v-8c0-4.417969-3.582031-8-8-8s-8 3.582031-8 8v56l-19.199219-14.398438c-2.84375-2.136719-6.757812-2.136719-9.601562 0l-19.199219 14.398438v-75.199219c46.917969-9.167969 95.484375-4.671875 139.921875 12.960938l1.117187.398437h2.960938c.875-.0625 1.738281-.25 2.558594-.558594l1.121094-.402343c49.808593-19.644532 104.621093-22.730469 156.320312-8.800782l37.839844 10.082032c2.449218.660156 5.070312.121093 7.058594-1.457032 1.988281-1.578125 3.109374-4.007812 3.023437-6.542968v-186.480469c0-4.417969-3.582031-8-8-8-4.421875 0-8 3.582031-8 8v144l-27.84375-7.441407c-51.535156-13.367187-105.898437-10.996093-156.078125 6.800782v-263.359375c48.597656-18.425781 101.734375-21.222657 152-8l32 8.480469v87.519531c0 4.417969 3.582031 8 8 8s8-3.582031 8-8v-93.28125c.128906-3.71875-2.328125-7.035157-5.921875-8l-37.917969-9.839844c-54.328125-14.355469-111.816406-11.078125-164.160156 9.359375-52.363281-20.359375-109.824219-23.636719-164.160156-9.359375l-37.917969 10.160156c-3.59375.964844-6.050781 4.28125-5.921875 8v204.960938c0 4.417969 3.582031 8 8 8s8-3.582031 8-8v-199.121094l32-8.480469c50.222656-13.351562 103.359375-10.691406 152 7.601563v263.199219c-50.246094-17.699219-104.648438-19.902344-156.160156-6.320313l-27.839844 7.121094v-32c0-4.417969-3.582031-8-8-8s-8 3.582031-8 8v74.71875c-.019531 2.503906 1.136719 4.875 3.121094 6.402343 1.40625 1.054688 3.121094 1.617188 4.878906 1.597657.691406.078125 1.390625.078125 2.078125 0l37.921875-10.320313v24h-64v-312.398437c0-4.417969-3.582031-8-8-8s-8 3.582031-8 8v320c0 4.417969 3.582031 8 8 8h72v48c.007812 3.011719 1.710938 5.765625 4.398438 7.121093 2.605468 1.210938 5.65625.9375 8-.722656l27.601562-20.398437 27.199219 20.398437c1.386719 1.039063 3.070312 1.601563 4.800781 1.601563 1.253906.023437 2.496094-.28125 3.601562-.878907 2.6875-1.355468 4.390626-4.109374 4.398438-7.121093v-48h16c8.835938 0 16 7.164062 16 16 0 4.417969 3.582031 8 8 8h80c4.417969 0 8-3.582031 8-8 0-8.835938 7.164062-16 16-16h168c4.417969 0 8-3.582031 8-8v-320c0-4.417969-3.582031-8-8-8zm-72 264.398437 32 8.480469v15.121094l-27.839844-7.441407c-51.5625-13.382812-105.953125-11.015624-156.160156 6.800782v-15.359375c48.640625-18.292969 101.777344-20.953125 152-7.601563zm-324.160156 16.480469-27.839844 7.121094v-15.121094l32-8.480469c50.265625-13.222656 103.402344-10.425781 152 8v14.800782c-50.246094-17.699219-104.648438-19.902344-156.160156-6.320313zm0 0"/><path fill="#96191d" d="m97.519531 140.898438c30.703125-5.921876 62.257813-5.921876 92.960938 0h1.519531c4.417969.417968 8.339844-2.820313 8.761719-7.242188.417969-4.417969-2.824219-8.339844-7.242188-8.757812-32.714843-6.28125-66.324219-6.28125-99.039062 0-2.160157.363281-4.070313 1.597656-5.296875 3.410156-1.222656 1.816406-1.652344 4.050781-1.183594 6.1875.386719 2.128906 1.613281 4.007812 3.40625 5.210937 1.796875 1.207031 4 1.636719 6.113281 1.191407zm0 0"/><path fill="#96191d" d="m97.519531 92.898438c30.703125-5.921876 62.257813-5.921876 92.960938 0h1.519531c4.417969.417968 8.339844-2.820313 8.761719-7.242188.417969-4.417969-2.824219-8.339844-7.242188-8.757812-32.714843-6.28125-66.324219-6.28125-99.039062 0-2.160157.363281-4.070313 1.597656-5.296875 3.410156-1.222656 1.816406-1.652344 4.050781-1.183594 6.1875.386719 2.128906 1.613281 4.007812 3.40625 5.210937 1.796875 1.207031 4 1.636719 6.113281 1.191407zm0 0"/><path fill="#96191d" d="m385.519531 77.136719c-32.714843-6.277344-66.324219-6.277344-99.039062 0-4.417969.421875-7.660157 4.34375-7.242188 8.761719.421875 4.417968 4.34375 7.660156 8.761719 7.238281h1.519531c30.703125-5.917969 62.257813-5.917969 92.960938 0 4.417969.839843 8.679687-2.058594 9.519531-6.480469.839844-4.417969-2.0625-8.679688-6.480469-9.519531zm0 0"/><path fill="#96191d" d="m385.519531 125.136719c-32.714843-6.277344-66.324219-6.277344-99.039062 0-4.417969.421875-7.660157 4.34375-7.242188 8.761719.421875 4.417968 4.34375 7.660156 8.761719 7.238281h1.519531c30.703125-5.917969 62.257813-5.917969 92.960938 0 4.417969.839843 8.679687-2.058594 9.519531-6.480469.839844-4.417969-2.0625-8.679688-6.480469-9.519531zm0 0"/><path fill="#96191d" d="m286.480469 221.296875c-4.417969.421875-7.660157 4.34375-7.242188 8.761719.421875 4.417968 4.34375 7.660156 8.761719 7.238281h1.519531c30.703125-5.917969 62.257813-5.917969 92.960938 0 4.417969.839844 8.679687-2.0625 9.519531-6.480469.839844-4.417968-2.0625-8.679687-6.480469-9.519531-32.714843-6.277344-66.324219-6.277344-99.039062 0zm0 0"/><path fill="#96191d" d="m385.519531 173.136719c-32.714843-6.277344-66.324219-6.277344-99.039062 0-4.417969.421875-7.660157 4.34375-7.242188 8.761719.421875 4.417968 4.34375 7.660156 8.761719 7.238281h1.519531c30.703125-5.917969 62.257813-5.917969 92.960938 0 4.417969.839843 8.679687-2.058594 9.519531-6.480469.839844-4.417969-2.0625-8.679688-6.480469-9.519531zm0 0"/><path fill="#96191d" d="m97.519531 188.898438c30.703125-5.921876 62.257813-5.921876 92.960938 0h1.519531c4.417969.417968 8.339844-2.820313 8.761719-7.242188.417969-4.417969-2.824219-8.339844-7.242188-8.757812-32.714843-6.28125-66.324219-6.28125-99.039062 0-2.160157.363281-4.070313 1.597656-5.296875 3.410156-1.222656 1.816406-1.652344 4.050781-1.183594 6.1875.386719 2.128906 1.613281 4.007812 3.40625 5.210937 1.796875 1.207031 4 1.636719 6.113281 1.191407zm0 0"/><path fill="#96191d" d="m97.519531 236.898438c30.703125-5.921876 62.257813-5.921876 92.960938 0h1.519531c4.417969.417968 8.339844-2.820313 8.761719-7.242188.417969-4.417969-2.824219-8.339844-7.242188-8.757812-32.714843-6.28125-66.324219-6.28125-99.039062 0-2.160157.363281-4.070313 1.597656-5.296875 3.410156-1.222656 1.816406-1.652344 4.050781-1.183594 6.1875.386719 2.128906 1.613281 4.007812 3.40625 5.210937 1.796875 1.207031 4 1.636719 6.113281 1.191407zm0 0"/></svg>
