<svg height="60pt" viewBox="0 -7 511.99881 511" width="60pt" xmlns="http://www.w3.org/2000/svg"><path fill="#96191d" d="m97.734375 108.566406 10.785156 2.191406c.503907.105469 1.007813.152344 1.503907.152344 3.492187 0 6.617187-2.449218 7.339843-6.003906.828125-4.0625-1.796875-8.019531-5.855469-8.84375l-10.785156-2.195312c-4.058594-.824219-8.019531 1.796874-8.84375 5.855468-.824218 4.058594 1.796875 8.019532 5.855469 8.84375zm0 0"/><path fill="#96191d" d="m504.5 165.953125h-33.582031c-1.988281 0-3.894531.789063-5.300781 2.199219l-32.238282 32.238281c-2.929687 2.929687-2.929687 7.675781 0 10.605469 2.925782 2.929687 7.675782 2.929687 10.605469 0l30.042969-30.042969h22.972656v309.738281c0 4.140625 3.355469 7.5 7.5 7.5 4.140625 0 7.5-3.359375 7.5-7.5v-317.238281c0-4.140625-3.355469-7.5-7.5-7.5zm0 0"/><path fill="#96191d" d="m420.1875 234.792969c2.929688-2.929688 2.929688-7.675781 0-10.605469s-7.679688-2.929688-10.605469 0l-20.648437 20.644531-12.898438-99.703125 1.003906-.171875c7.34375-1.234375 13.308594-6.683593 15.203126-13.886719l3.640624-13.855468c1.644532-6.253906.019532-12.84375-4.34375-17.621094-4.363281-4.773438-10.777343-6.984375-17.15625-5.910156l-4.894531.820312-.507812-3.914062c13.257812-2.304688 22.46875-9.925782 22.46875-19.511719 0-11.535156-13.332031-20.230469-31.011719-20.230469s-31.011719 8.695313-31.011719 20.230469c0 10.0625 10.144531 17.960937 24.46875 19.816406l.789063 6.101563-3.984375.667968c-6.597657 1.113282-12.382813 4.6875-16.328125 10.074219-1.78125-.273437-3.597656-.339843-5.40625-.179687l-111.242188 9.992187c-.9375-3.007812-2.179687-5.925781-3.707031-8.714843 8.472656-3.859376 15.902344-9.78125 21.671875-17.417969 8.289062-10.96875 12.230469-24.269531 11.335938-37.847657.964843-.425781 1.925781-.851562 2.902343-1.304687 3.757813-1.742187 5.390625-6.203125 3.644531-9.960937-1.6875-3.632813-5.914062-5.269532-9.589843-3.792969-8.726563-24.988281-34.171875-41.25-61.375-37.464844-11.941407 1.660156-22.789063 6.957031-31.328125 15.136719-1.195313-.421875-2.414063-.78125-3.671875-1.039063l-44.777344-9.105469c-15.074219-3.0625-29.832031 6.703126-32.898437 21.777344-1.484376 7.304688-.039063 14.746094 4.074218 20.960938 1.097656 1.65625 2.351563 3.167968 3.734375 4.527344-10.070312 8.496093-17.09375 20.171874-19.765625 33.304687l-14.914062 73.332031-6.671875 7.910156c-1.519531 1.800782-2.714844 3.8125-3.585938 5.960938-.261719.046875-.523437.09375-.785156.152344-6.65625 1.449218-12.347656 5.40625-16.027344 11.140625l-12.972656 20.210937c-3.496094 5.445313-3.980469 12.210938-1.304687 18.101563 2.675781 5.886719 8.097656 9.96875 14.496093 10.917969 0 0 16.019531 2.296874 16.9375 2.296874 6.390625 0 12.460938-3.246093 15.976563-8.726562l1.804687-2.804688c9.042969 15.742188 22.949219 28.011719 39.820313 34.988282l-14.460938 56.4375c-1.027344 4.015625 1.390625 8.101562 5.40625 9.128906.625.160156 1.25.234375 1.867188.234375 3.339844 0 6.390625-2.25 7.257812-5.640625l19.28125-75.261719 21.167969 2.347657-43.730469 160.078124c-2.964844-1.402343-6.019531-2.644531-9.160156-3.6875l-8.242188-2.734374 12.199219-47.617188c1.027344-4.011719-1.394531-8.097656-5.40625-9.128906-4.011719-1.023438-8.097656 1.394531-9.125 5.40625l-13.382812 52.238281c-3.621094 2.097656-6.332031 5.390625-7.660157 9.398437l-5.425781 16.351563c-2.972656 8.96875 1.902344 18.683594 10.867188 21.660156l2.394531.792969-5.753906 5.753906c-1.40625 1.40625-2.195313 3.3125-2.195313 5.304688v29.539062c0 4.140625 3.355469 7.5 7.5 7.5 4.140625 0 7.5-3.359375 7.5-7.5v-26.433594l8.878907-8.878906 5.265624 1.746094c-.167968.625-.265624 1.28125-.265624 1.960938 0 4.144531 3.355468 7.5 7.5 7.5h74.113281c4.144531 0 7.5-3.355469 7.5-7.5 0-4.140626-3.355469-7.5-7.5-7.5h-32.175781c.730468-4.15625-.019532-8.527344-2.320313-12.371094-4.433594-7.402344-9.980469-13.988282-16.386719-19.570313l53.738282-53.742187h63.742187c1.988281 0 3.894531-.789063 5.300781-2.195313l52.765625-52.765625h51.628907v68.300782c0 4.140624 3.355468 7.5 7.5 7.5 4.140624 0 7.5-3.359376 7.5-7.5v-72.691407zm-75.738281-163.710938c.636719-1.535156 6.191406-5.234375 15.988281-5.234375s15.351562 3.699219 15.988281 5.234375c-.636719 1.53125-6.191406 5.230469-15.988281 5.230469s-15.351562-3.699219-15.988281-5.230469zm1.925781 45.644531c1.628906-2.285156 4.046875-3.800781 6.8125-4.269531l23.683594-3.980469c.246094-.042968.476562-.0625.699218-.0625 1.523438 0 2.511719.878907 2.894532 1.296876.4375.480468 1.40625 1.804687.910156 3.691406l-3.640625 13.855468c-.398437 1.507813-1.648437 2.648438-3.1875 2.90625l-17.875 3.007813c-5.710937.957031-11.140625-2.902344-12.097656-8.613281-.464844-2.765625.175781-5.546875 1.800781-7.832032zm-16.945312 5.855469c-.011719 1.480469.101562 2.972657.351562 4.464844.59375 3.519531 1.902344 6.738281 3.726562 9.5625-.351562.128906-.707031.242187-1.074218.316406-.265625.054688-.542969.09375-.820313.121094l-114.230469 10.257813.824219-3.246094c1.042969-3.84375 1.589844-7.75 1.65625-11.640625zm-105.710938-40.207031c-6.714844 8.894531-16.496094 14.636719-27.53125 16.175781-1.945312.269531-3.875.402344-5.785156.402344-20.472656-.003906-38.394532-15.128906-41.296875-35.972656-.347657-2.492188-.457031-4.976563-.363281-7.441407 9.207031 4.804688 24.21875 10.386719 44.308593 10.386719 11.421875 0 24.492188-1.820312 39.054688-6.601562-.402344 8.296875-3.269531 16.28125-8.386719 23.050781zm-39.042969-66.472656c1.945313-.269532 3.871094-.402344 5.78125-.402344 17.996094 0 34.011719 11.6875 39.601563 28.667969-40.613282 14.144531-67.863282 2.058593-77.773438-3.855469 1.289063-2.886719 2.902344-5.652344 4.855469-8.238281 6.71875-8.890625 16.496094-14.636719 27.535156-16.171875zm-100.046875 14.90625c1.417969-6.96875 8.242188-11.488282 15.210938-10.070313l41.316406 8.40625c-4.371094 7.632813-6.886719 16.09375-7.367188 24.824219l-39.089843-7.949219c-6.972657-1.417969-11.488281-8.242187-10.070313-15.210937zm-11.957031 58.792968c2.429687-11.957031 9.691406-22.304687 20.035156-28.679687l42.363281 8.617187c1.894532 8.539063 5.671876 16.257813 10.824219 22.777344-6.351562 4.273438-11.566406 10.015625-15.21875 16.828125l-31.617187 4.996094-2.363282-.480469c-2.484374-.507812-4.929687.285156-6.644531 1.902344l-2.835937.449219c-5.292969.835937-10.113282 3.554687-13.566406 7.652343l-10.417969 12.351563zm-40.101563 131.992188-14.167968-2.097656c-1.933594-.285156-2.765625-1.695313-3.035156-2.289063-.269532-.589843-.785157-2.144531.273437-3.789062l12.96875-20.210938c1.515625-2.363281 3.859375-3.992187 6.601563-4.589843.75-.164063 1.507812-.246094 2.257812-.246094 1.988281 0 3.9375.570312 5.652344 1.667968 2.363281 1.515626 3.992187 3.859376 4.589844 6.601563.597656 2.738281.09375 5.550781-1.421876 7.910156l-9.792968 15.253907c-.839844 1.316406-2.382813 2.015624-3.925782 1.789062zm27.707032-11.347656c1.230468-2.460938 2.042968-5.074219 2.425781-7.757813 2.976563-1.347656 5.644531-3.347656 7.785156-5.890625l3.808594-4.511718c1.796875 15.480468 9.347656 30.015624 21.410156 40.351562l-.59375 2.167969c-.519531 1.914062-.257812 3.945312.710938 5.65625l-1.3125 5.117187c-15.386719-6.945312-27.546875-19.386718-34.234375-35.132812zm39.976562 5.566406c-9.335937-10.960938-13.375-25.847656-10.441406-40.289062l.496094-2.429688 12.078125-14.324219 14.070312-2.222656zm9.515625 231.109375c.953125 1.589844.261719 2.871094-.234375 3.492187-.5.621094-1.597656 1.574219-3.355468.988282l-49.253907-16.339844c-1.117187-.371094-1.726562-1.582031-1.355469-2.699219l5.425782-16.347656c.230468-.695313.707031-1.058594 1.066406-1.238281.359375-.179688.9375-.34375 1.628906-.117188l9.960938 3.304688c15.109375 5.015625 27.9375 15.296875 36.117187 28.957031zm47.117188-96.015625c-1.988281 0-3.894531.789062-5.300781 2.199219l-46.316407 46.3125 30.398438-111.28125 72.710937-7.878907-18.589844 68.601563c-.207031.679687-.382812 1.363281-.53125 2.046875zm47.890625 0 20.949218-77.328125c.648438-2.390625.074219-4.949219-1.535156-6.832031-1.613281-1.882813-4.046875-2.851563-6.511718-2.585938l-77.761719 8.429688 6.4375-23.578125s24.792969 2.695312 25.671875 2.695312c7.621094 0 14.707031-3.648437 19.226562-9.515625l47.410156-4.175781c3.042969-.265625 5.929688.917969 7.90625 3.25 1.976563 2.332031 2.671876 5.367187 1.898438 8.375l-24.554688 97.980469-3.289062 3.285156zm73.917968-54.960938c-1.992187 0-3.898437.789063-5.304687 2.195313l-28.84375 28.84375 18.460937-73.648437c1.964844-7.625.097657-15.765626-4.996093-21.773438-5.09375-6.003906-12.820313-9.175781-20.660157-8.488281l-40.097656 3.53125 3.355469-13.226563c1.019531-4.015625-1.410156-8.097656-5.421875-9.113281-4.011719-1.019531-8.097656 1.410156-9.117188 5.421875l-5.09375 20.074219c-1.125 4.433593-5.410156 7.398437-9.945312 6.890625l-59.132812-6.554688 20.808593-76.117187 23.613281-3.730469c4.089844-.644531 6.882813-4.488281 6.238282-8.578125-.648438-4.09375-4.484375-6.878906-8.582032-6.238281l-56.691406 8.957031c-1.78125.28125-3.402344 1.195313-4.5625 2.574219l-33.117187 39.269531c-2.011719-3.535156-4.859375-6.558594-8.382813-8.820313-.71875-.460937-1.457031-.882812-2.210937-1.269531l36.101562-42.8125c1.132813-1.339843 2.710938-2.230469 4.445313-2.503906l62.140625-9.816406c4.089843-.648438 6.882812-4.488281 6.238281-8.582031-.492188-3.121094-2.851562-5.480469-5.757812-6.140626 1.523437-1.210937 3.160156-2.289062 4.898437-3.222656 9.464844 6.890625 21.050781 10.886719 33.316406 10.886719 2.59375 0 5.21875-.179687 7.863281-.546875.300782-.042969.597657-.101562.902344-.148438 5.378906 7.828126 7.09375 17.640626 4.558594 26.914063-.011719.046875-.023438.089844-.03125.132813l-9.195312 36.222656c-1.019532 4.015625 1.40625 8.09375 5.421874 9.113281.621094.160156 1.242188.234375 1.851563.234375 3.351563 0 6.402344-2.261719 7.265625-5.65625l4.441406-17.503906 119.480469-10.730469c.828125-.074219 1.65625-.195313 2.46875-.359375 3.800781-.773438 7.316406-2.558594 10.210937-5.085938 2.910157 1.144532 6.046876 1.78125 9.289063 1.78125 1.398437 0 2.816406-.113281 4.242187-.355468l2.070313-.347656 14.308594 110.609374-37.71875 37.71875zm0 0"/><path fill="#96191d" d="m246.785156 400.5h-35.121094c-4.140624 0-7.5 3.359375-7.5 7.5v54c0 4.140625 3.359376 7.5 7.5 7.5 4.140626 0 7.5-3.359375 7.5-7.5v-46.5h27.621094c4.144532 0 7.5-3.359375 7.5-7.5s-3.355468-7.5-7.5-7.5zm0 0"/><path fill="#96191d" d="m318.511719 425.683594h-.109375c-.023438 0-.046875 0-.066406 0-4.113282 0-7.464844 3.3125-7.5 7.429687-.035157 4.144531 3.292968 7.53125 7.433593 7.566407l.109375.003906h.066406c4.109376 0 7.460938-3.316406 7.5-7.433594.035157-4.144531-3.292968-7.53125-7.433593-7.566406zm0 0"/><path fill="#96191d" d="m465.683594 321.292969h.070312c4.109375 0 7.460938-3.3125 7.496094-7.429688.039062-4.144531-3.289062-7.53125-7.433594-7.566406l-.109375-.003906c-4.175781-.0625-7.527343 3.292969-7.5625 7.433593-.039062 4.144532 3.289063 7.53125 7.429688 7.566407zm0 0"/><path fill="#96191d" d="m185.464844 401.769531-.109375-.003906c-.023438 0-.046875 0-.070313 0-4.109375 0-7.460937 3.316406-7.496094 7.433594-.039062 4.144531 3.289063 7.53125 7.429688 7.566406l.109375.003906h.070313c4.109374 0 7.460937-3.316406 7.496093-7.433593.039063-4.144532-3.289062-7.53125-7.429687-7.566407zm0 0"/><path fill="#96191d" d="m152.183594 425.683594c-.019532 0-.042969 0-.066406 0-4.109376 0-7.460938 3.3125-7.496094 7.429687-.039063 4.144531 3.289062 7.53125 7.429687 7.566407l.109375.003906h.070313c4.109375 0 7.460937-3.316406 7.496093-7.433594.039063-4.144531-3.289062-7.53125-7.433593-7.566406zm0 0"/><path fill="#96191d" d="m461.324219 332.273438h-62.109375c-13.105469 0-23.773438 10.664062-23.773438 23.769531 0 11.453125 8.140625 21.035156 18.933594 23.277343v50.507813c0 4.140625 3.355469 7.5 7.5 7.5 4.140625 0 7.5-3.359375 7.5-7.5v-50.011719h40.796875v110.875c0 4.140625 3.355469 7.5 7.5 7.5 4.140625 0 7.5-3.359375 7.5-7.5v-111.191406c11.285156-1.84375 19.925781-11.65625 19.925781-23.457031 0-13.105469-10.664062-23.769531-23.773437-23.769531zm0 32.542968h-62.109375c-4.835938 0-8.773438-3.9375-8.773438-8.773437 0-4.835938 3.9375-8.773438 8.773438-8.773438h62.109375c4.839843 0 8.773437 3.9375 8.773437 8.773438 0 4.835937-3.933594 8.773437-8.773437 8.773437zm0 0"/><path fill="#96191d" d="m293.003906 363.449219h-37.558594c-4.140624 0-7.5 3.359375-7.5 7.5 0 4.144531 3.359376 7.5 7.5 7.5h30.058594v14.804687c0 4.144532 3.359375 7.5 7.5 7.5s7.5-3.355468 7.5-7.5v-22.304687c0-4.140625-3.359375-7.5-7.5-7.5zm0 0"/></svg>
